<mxfile host="Electron" modified="2024-07-10T04:42:04.325Z" agent="Mozilla/5.0 (X11; Linux x86_64) AppleWebKit/537.36 (KHTML, like Gecko) draw.io/24.6.4 Chrome/124.0.6367.207 Electron/30.0.6 Safari/537.36" etag="PE-oCfHTbwbyEj8tmwVh" version="24.6.4" type="device">
  <diagram name="Page-1" id="eInrL5Vaop0u7lloxNtn">
    <mxGraphModel dx="2945" dy="1810" grid="1" gridSize="10" guides="1" tooltips="1" connect="1" arrows="1" fold="1" page="1" pageScale="1" pageWidth="850" pageHeight="1100" math="0" shadow="0">
      <root>
        <mxCell id="0" />
        <mxCell id="1" parent="0" />
        <mxCell id="_jVC7aK5IFEm5k1FdRS1-13" value="&#39;&amp;nbsp; &#39;" style="ellipse;whiteSpace=wrap;html=1;fontSize=24;labelBackgroundColor=none;fillColor=#FAE5C7;strokeColor=#0F8B8D;fontColor=#143642;" vertex="1" parent="1">
          <mxGeometry x="60" y="700" width="40" height="40" as="geometry" />
        </mxCell>
        <mxCell id="_jVC7aK5IFEm5k1FdRS1-95" style="edgeStyle=orthogonalEdgeStyle;rounded=0;orthogonalLoop=1;jettySize=auto;html=1;exitX=0;exitY=0.5;exitDx=0;exitDy=0;entryX=0.5;entryY=0;entryDx=0;entryDy=0;labelBackgroundColor=none;strokeColor=#A8201A;fontColor=default;" edge="1" parent="1" source="_jVC7aK5IFEm5k1FdRS1-18" target="_jVC7aK5IFEm5k1FdRS1-13">
          <mxGeometry relative="1" as="geometry" />
        </mxCell>
        <mxCell id="_jVC7aK5IFEm5k1FdRS1-18" value="ا" style="ellipse;whiteSpace=wrap;html=1;fontSize=24;labelBackgroundColor=none;fillColor=#FAE5C7;strokeColor=#0F8B8D;fontColor=#143642;" vertex="1" parent="1">
          <mxGeometry x="403" y="110" width="40" height="40" as="geometry" />
        </mxCell>
        <mxCell id="_jVC7aK5IFEm5k1FdRS1-29" value="ب" style="ellipse;whiteSpace=wrap;html=1;fontSize=24;labelBackgroundColor=none;fillColor=#FAE5C7;strokeColor=#0F8B8D;fontColor=#143642;" vertex="1" parent="1">
          <mxGeometry x="403" y="180" width="40" height="40" as="geometry" />
        </mxCell>
        <mxCell id="_jVC7aK5IFEm5k1FdRS1-30" value="ت" style="ellipse;whiteSpace=wrap;html=1;fontSize=24;labelBackgroundColor=none;fillColor=#FAE5C7;strokeColor=#0F8B8D;fontColor=#143642;" vertex="1" parent="1">
          <mxGeometry x="353" y="180" width="40" height="40" as="geometry" />
        </mxCell>
        <mxCell id="_jVC7aK5IFEm5k1FdRS1-31" value="ة" style="ellipse;whiteSpace=wrap;html=1;fontSize=24;labelBackgroundColor=none;fillColor=#FAE5C7;strokeColor=#0F8B8D;fontColor=#143642;" vertex="1" parent="1">
          <mxGeometry x="403" y="330" width="40" height="40" as="geometry" />
        </mxCell>
        <mxCell id="_jVC7aK5IFEm5k1FdRS1-32" value="ث" style="ellipse;whiteSpace=wrap;html=1;fontSize=24;labelBackgroundColor=none;fillColor=#FAE5C7;strokeColor=#0F8B8D;fontColor=#143642;" vertex="1" parent="1">
          <mxGeometry x="253" y="180" width="40" height="40" as="geometry" />
        </mxCell>
        <mxCell id="_jVC7aK5IFEm5k1FdRS1-33" value="ج" style="ellipse;whiteSpace=wrap;html=1;fontSize=24;labelBackgroundColor=none;fillColor=#FAE5C7;strokeColor=#0F8B8D;fontColor=#143642;" vertex="1" parent="1">
          <mxGeometry x="403" y="430" width="40" height="40" as="geometry" />
        </mxCell>
        <mxCell id="_jVC7aK5IFEm5k1FdRS1-34" value="چ" style="ellipse;whiteSpace=wrap;html=1;fontSize=24;labelBackgroundColor=none;fillColor=#FAE5C7;strokeColor=#0F8B8D;fontColor=#143642;" vertex="1" parent="1">
          <mxGeometry x="353" y="430" width="40" height="40" as="geometry" />
        </mxCell>
        <mxCell id="_jVC7aK5IFEm5k1FdRS1-35" value="ح" style="ellipse;whiteSpace=wrap;html=1;fontSize=24;labelBackgroundColor=none;fillColor=#FAE5C7;strokeColor=#0F8B8D;fontColor=#143642;" vertex="1" parent="1">
          <mxGeometry x="303" y="430" width="40" height="40" as="geometry" />
        </mxCell>
        <mxCell id="_jVC7aK5IFEm5k1FdRS1-36" value="خ" style="ellipse;whiteSpace=wrap;html=1;fontSize=24;labelBackgroundColor=none;fillColor=#FAE5C7;strokeColor=#0F8B8D;fontColor=#143642;" vertex="1" parent="1">
          <mxGeometry x="253" y="430" width="40" height="40" as="geometry" />
        </mxCell>
        <mxCell id="_jVC7aK5IFEm5k1FdRS1-37" value="د" style="ellipse;whiteSpace=wrap;html=1;fontSize=24;labelBackgroundColor=none;fillColor=#FAE5C7;strokeColor=#0F8B8D;fontColor=#143642;" vertex="1" parent="1">
          <mxGeometry x="403" y="530" width="40" height="40" as="geometry" />
        </mxCell>
        <mxCell id="_jVC7aK5IFEm5k1FdRS1-100" style="edgeStyle=orthogonalEdgeStyle;rounded=0;orthogonalLoop=1;jettySize=auto;html=1;exitX=0;exitY=0.5;exitDx=0;exitDy=0;labelBackgroundColor=none;strokeColor=#A8201A;fontColor=default;" edge="1" parent="1" source="_jVC7aK5IFEm5k1FdRS1-38" target="_jVC7aK5IFEm5k1FdRS1-13">
          <mxGeometry relative="1" as="geometry" />
        </mxCell>
        <mxCell id="_jVC7aK5IFEm5k1FdRS1-38" value="ذ" style="ellipse;whiteSpace=wrap;html=1;fontSize=24;labelBackgroundColor=none;fillColor=#FAE5C7;strokeColor=#0F8B8D;fontColor=#143642;" vertex="1" parent="1">
          <mxGeometry x="353" y="530" width="40" height="40" as="geometry" />
        </mxCell>
        <mxCell id="_jVC7aK5IFEm5k1FdRS1-39" value="ر" style="ellipse;whiteSpace=wrap;html=1;fontSize=24;labelBackgroundColor=none;fillColor=#FAE5C7;strokeColor=#0F8B8D;fontColor=#143642;" vertex="1" parent="1">
          <mxGeometry x="403" y="630" width="40" height="40" as="geometry" />
        </mxCell>
        <mxCell id="_jVC7aK5IFEm5k1FdRS1-101" style="edgeStyle=orthogonalEdgeStyle;rounded=0;orthogonalLoop=1;jettySize=auto;html=1;exitX=0;exitY=0.5;exitDx=0;exitDy=0;entryX=0.5;entryY=0;entryDx=0;entryDy=0;labelBackgroundColor=none;strokeColor=#A8201A;fontColor=default;" edge="1" parent="1" source="_jVC7aK5IFEm5k1FdRS1-40" target="_jVC7aK5IFEm5k1FdRS1-13">
          <mxGeometry relative="1" as="geometry" />
        </mxCell>
        <mxCell id="_jVC7aK5IFEm5k1FdRS1-40" value="ز" style="ellipse;whiteSpace=wrap;html=1;fontSize=24;labelBackgroundColor=none;fillColor=#FAE5C7;strokeColor=#0F8B8D;fontColor=#143642;" vertex="1" parent="1">
          <mxGeometry x="353" y="630" width="40" height="40" as="geometry" />
        </mxCell>
        <mxCell id="_jVC7aK5IFEm5k1FdRS1-41" value="س" style="ellipse;whiteSpace=wrap;html=1;fontSize=24;labelBackgroundColor=none;fillColor=#FAE5C7;strokeColor=#0F8B8D;fontColor=#143642;" vertex="1" parent="1">
          <mxGeometry x="403" y="740" width="40" height="40" as="geometry" />
        </mxCell>
        <mxCell id="_jVC7aK5IFEm5k1FdRS1-42" value="ش" style="ellipse;whiteSpace=wrap;html=1;fontSize=24;labelBackgroundColor=none;fillColor=#FAE5C7;strokeColor=#0F8B8D;fontColor=#143642;" vertex="1" parent="1">
          <mxGeometry x="353" y="740" width="40" height="40" as="geometry" />
        </mxCell>
        <mxCell id="_jVC7aK5IFEm5k1FdRS1-43" value="ص" style="ellipse;whiteSpace=wrap;html=1;fontSize=24;labelBackgroundColor=none;fillColor=#FAE5C7;strokeColor=#0F8B8D;fontColor=#143642;" vertex="1" parent="1">
          <mxGeometry x="403" y="830" width="40" height="40" as="geometry" />
        </mxCell>
        <mxCell id="_jVC7aK5IFEm5k1FdRS1-44" value="ض" style="ellipse;whiteSpace=wrap;html=1;fontSize=24;labelBackgroundColor=none;fillColor=#FAE5C7;strokeColor=#0F8B8D;fontColor=#143642;" vertex="1" parent="1">
          <mxGeometry x="353" y="830" width="40" height="40" as="geometry" />
        </mxCell>
        <mxCell id="_jVC7aK5IFEm5k1FdRS1-45" value="ط" style="ellipse;whiteSpace=wrap;html=1;fontSize=24;labelBackgroundColor=none;fillColor=#FAE5C7;strokeColor=#0F8B8D;fontColor=#143642;" vertex="1" parent="1">
          <mxGeometry x="403" y="935.5" width="40" height="40" as="geometry" />
        </mxCell>
        <mxCell id="_jVC7aK5IFEm5k1FdRS1-46" value="ظ" style="ellipse;whiteSpace=wrap;html=1;fontSize=24;labelBackgroundColor=none;fillColor=#FAE5C7;strokeColor=#0F8B8D;fontColor=#143642;" vertex="1" parent="1">
          <mxGeometry x="353" y="935.5" width="40" height="40" as="geometry" />
        </mxCell>
        <mxCell id="_jVC7aK5IFEm5k1FdRS1-47" value="ع" style="ellipse;whiteSpace=wrap;html=1;fontSize=24;labelBackgroundColor=none;fillColor=#FAE5C7;strokeColor=#0F8B8D;fontColor=#143642;" vertex="1" parent="1">
          <mxGeometry x="403" y="1025.5" width="40" height="40" as="geometry" />
        </mxCell>
        <mxCell id="_jVC7aK5IFEm5k1FdRS1-48" value="غ" style="ellipse;whiteSpace=wrap;html=1;fontSize=24;labelBackgroundColor=none;fillColor=#FAE5C7;strokeColor=#0F8B8D;fontColor=#143642;" vertex="1" parent="1">
          <mxGeometry x="353" y="1025.5" width="40" height="40" as="geometry" />
        </mxCell>
        <mxCell id="_jVC7aK5IFEm5k1FdRS1-49" value="ڠ" style="ellipse;whiteSpace=wrap;html=1;fontSize=24;labelBackgroundColor=none;fillColor=#FAE5C7;strokeColor=#0F8B8D;fontColor=#143642;" vertex="1" parent="1">
          <mxGeometry x="303" y="1025.5" width="40" height="40" as="geometry" />
        </mxCell>
        <mxCell id="_jVC7aK5IFEm5k1FdRS1-50" value="ف" style="ellipse;whiteSpace=wrap;html=1;fontSize=24;labelBackgroundColor=none;fillColor=#FAE5C7;strokeColor=#0F8B8D;fontColor=#143642;" vertex="1" parent="1">
          <mxGeometry x="403" y="1119.5" width="40" height="40" as="geometry" />
        </mxCell>
        <mxCell id="_jVC7aK5IFEm5k1FdRS1-51" value="ڤ" style="ellipse;whiteSpace=wrap;html=1;fontSize=24;labelBackgroundColor=none;fillColor=#FAE5C7;strokeColor=#0F8B8D;fontColor=#143642;" vertex="1" parent="1">
          <mxGeometry x="353" y="1119.5" width="40" height="40" as="geometry" />
        </mxCell>
        <mxCell id="_jVC7aK5IFEm5k1FdRS1-52" value="ق" style="ellipse;whiteSpace=wrap;html=1;fontSize=24;labelBackgroundColor=none;fillColor=#FAE5C7;strokeColor=#0F8B8D;fontColor=#143642;" vertex="1" parent="1">
          <mxGeometry x="303" y="1119.5" width="40" height="40" as="geometry" />
        </mxCell>
        <mxCell id="_jVC7aK5IFEm5k1FdRS1-53" value="ک" style="ellipse;whiteSpace=wrap;html=1;fontSize=24;labelBackgroundColor=none;fillColor=#FAE5C7;strokeColor=#0F8B8D;fontColor=#143642;" vertex="1" parent="1">
          <mxGeometry x="403" y="1224.5" width="40" height="40" as="geometry" />
        </mxCell>
        <mxCell id="_jVC7aK5IFEm5k1FdRS1-54" value="ݢ" style="ellipse;whiteSpace=wrap;html=1;fontSize=24;labelBackgroundColor=none;fillColor=#FAE5C7;strokeColor=#0F8B8D;fontColor=#143642;" vertex="1" parent="1">
          <mxGeometry x="353" y="1224.5" width="40" height="40" as="geometry" />
        </mxCell>
        <mxCell id="_jVC7aK5IFEm5k1FdRS1-55" value="ل" style="ellipse;whiteSpace=wrap;html=1;fontSize=24;labelBackgroundColor=none;fillColor=#FAE5C7;strokeColor=#0F8B8D;fontColor=#143642;" vertex="1" parent="1">
          <mxGeometry x="403" y="1314.5" width="40" height="40" as="geometry" />
        </mxCell>
        <mxCell id="_jVC7aK5IFEm5k1FdRS1-56" value="م" style="ellipse;whiteSpace=wrap;html=1;fontSize=24;labelBackgroundColor=none;fillColor=#FAE5C7;strokeColor=#0F8B8D;fontColor=#143642;" vertex="1" parent="1">
          <mxGeometry x="403" y="1424.5" width="40" height="40" as="geometry" />
        </mxCell>
        <mxCell id="_jVC7aK5IFEm5k1FdRS1-57" value="ن" style="ellipse;whiteSpace=wrap;html=1;fontSize=24;labelBackgroundColor=none;fillColor=#FAE5C7;strokeColor=#0F8B8D;fontColor=#143642;" vertex="1" parent="1">
          <mxGeometry x="203" y="180" width="40" height="40" as="geometry" />
        </mxCell>
        <mxCell id="_jVC7aK5IFEm5k1FdRS1-58" value="و" style="ellipse;whiteSpace=wrap;html=1;fontSize=24;labelBackgroundColor=none;fillColor=#FAE5C7;strokeColor=#0F8B8D;fontColor=#143642;" vertex="1" parent="1">
          <mxGeometry x="403" y="1624.5" width="40" height="40" as="geometry" />
        </mxCell>
        <mxCell id="_jVC7aK5IFEm5k1FdRS1-102" style="edgeStyle=orthogonalEdgeStyle;rounded=0;orthogonalLoop=1;jettySize=auto;html=1;exitX=0;exitY=0.5;exitDx=0;exitDy=0;entryX=0.5;entryY=1;entryDx=0;entryDy=0;labelBackgroundColor=none;strokeColor=#A8201A;fontColor=default;" edge="1" parent="1" source="_jVC7aK5IFEm5k1FdRS1-59" target="_jVC7aK5IFEm5k1FdRS1-13">
          <mxGeometry relative="1" as="geometry" />
        </mxCell>
        <mxCell id="_jVC7aK5IFEm5k1FdRS1-59" value="ۏ" style="ellipse;whiteSpace=wrap;html=1;fontSize=24;labelBackgroundColor=none;fillColor=#FAE5C7;strokeColor=#0F8B8D;fontColor=#143642;" vertex="1" parent="1">
          <mxGeometry x="353" y="1624.5" width="40" height="40" as="geometry" />
        </mxCell>
        <mxCell id="_jVC7aK5IFEm5k1FdRS1-104" style="edgeStyle=orthogonalEdgeStyle;rounded=0;orthogonalLoop=1;jettySize=auto;html=1;exitX=0;exitY=0.5;exitDx=0;exitDy=0;labelBackgroundColor=none;strokeColor=#A8201A;fontColor=default;" edge="1" parent="1" source="_jVC7aK5IFEm5k1FdRS1-60">
          <mxGeometry relative="1" as="geometry">
            <mxPoint x="80" y="700.0000000000002" as="targetPoint" />
          </mxGeometry>
        </mxCell>
        <mxCell id="_jVC7aK5IFEm5k1FdRS1-60" value="ه" style="ellipse;whiteSpace=wrap;html=1;fontSize=24;labelBackgroundColor=none;fillColor=#FAE5C7;strokeColor=#0F8B8D;fontColor=#143642;" vertex="1" parent="1">
          <mxGeometry x="353" y="330" width="40" height="40" as="geometry" />
        </mxCell>
        <mxCell id="_jVC7aK5IFEm5k1FdRS1-61" value="ء" style="ellipse;whiteSpace=wrap;html=1;fontSize=24;labelBackgroundColor=none;fillColor=#FAE5C7;strokeColor=#0F8B8D;fontColor=#143642;" vertex="1" parent="1">
          <mxGeometry x="403" y="1524.5" width="40" height="40" as="geometry" />
        </mxCell>
        <mxCell id="_jVC7aK5IFEm5k1FdRS1-62" value="ي" style="ellipse;whiteSpace=wrap;html=1;fontSize=24;labelBackgroundColor=none;fillColor=#FAE5C7;strokeColor=#0F8B8D;fontColor=#143642;" vertex="1" parent="1">
          <mxGeometry x="403" y="240" width="40" height="40" as="geometry" />
        </mxCell>
        <mxCell id="_jVC7aK5IFEm5k1FdRS1-103" style="edgeStyle=orthogonalEdgeStyle;rounded=0;orthogonalLoop=1;jettySize=auto;html=1;exitX=0;exitY=0.5;exitDx=0;exitDy=0;entryX=0.5;entryY=0;entryDx=0;entryDy=0;labelBackgroundColor=none;strokeColor=#A8201A;fontColor=default;" edge="1" parent="1" source="_jVC7aK5IFEm5k1FdRS1-63" target="_jVC7aK5IFEm5k1FdRS1-13">
          <mxGeometry relative="1" as="geometry" />
        </mxCell>
        <mxCell id="_jVC7aK5IFEm5k1FdRS1-63" value="ی" style="ellipse;whiteSpace=wrap;html=1;fontSize=24;labelBackgroundColor=none;fillColor=#FAE5C7;strokeColor=#0F8B8D;fontColor=#143642;" vertex="1" parent="1">
          <mxGeometry x="353" y="240" width="40" height="40" as="geometry" />
        </mxCell>
        <mxCell id="_jVC7aK5IFEm5k1FdRS1-64" value="ڽ" style="ellipse;whiteSpace=wrap;html=1;fontSize=24;labelBackgroundColor=none;fillColor=#FAE5C7;strokeColor=#0F8B8D;fontColor=#143642;" vertex="1" parent="1">
          <mxGeometry x="303" y="180" width="40" height="40" as="geometry" />
        </mxCell>
        <mxCell id="_jVC7aK5IFEm5k1FdRS1-107" style="edgeStyle=orthogonalEdgeStyle;curved=1;rounded=0;orthogonalLoop=1;jettySize=auto;html=1;entryX=1;entryY=0.5;entryDx=0;entryDy=0;strokeColor=#0006A8;fontColor=#090042;fillColor=#FAE5C7;strokeWidth=2;exitX=0;exitY=0.5;exitDx=0;exitDy=0;" edge="1" parent="1" source="_jVC7aK5IFEm5k1FdRS1-80" target="_jVC7aK5IFEm5k1FdRS1-18">
          <mxGeometry relative="1" as="geometry">
            <mxPoint x="830" y="720" as="sourcePoint" />
            <Array as="points">
              <mxPoint x="640" y="1045" />
              <mxPoint x="640" y="130" />
            </Array>
          </mxGeometry>
        </mxCell>
        <mxCell id="_jVC7aK5IFEm5k1FdRS1-76" value="0" style="ellipse;whiteSpace=wrap;html=1;fontSize=24;labelBackgroundColor=none;fillColor=#FAE5C7;strokeColor=#0F8B8D;fontColor=#143642;" vertex="1" parent="1">
          <mxGeometry x="715" y="160" width="40" height="40" as="geometry" />
        </mxCell>
        <mxCell id="_jVC7aK5IFEm5k1FdRS1-77" value="1" style="ellipse;whiteSpace=wrap;html=1;fontSize=24;labelBackgroundColor=none;fillColor=#FAE5C7;strokeColor=#0F8B8D;fontColor=#143642;" vertex="1" parent="1">
          <mxGeometry x="715" y="551" width="40" height="40" as="geometry" />
        </mxCell>
        <mxCell id="_jVC7aK5IFEm5k1FdRS1-78" value="2" style="ellipse;whiteSpace=wrap;html=1;fontSize=24;labelBackgroundColor=none;fillColor=#FAE5C7;strokeColor=#0F8B8D;fontColor=#143642;" vertex="1" parent="1">
          <mxGeometry x="715" y="910" width="40" height="40" as="geometry" />
        </mxCell>
        <mxCell id="_jVC7aK5IFEm5k1FdRS1-79" value="3" style="ellipse;whiteSpace=wrap;html=1;fontSize=24;labelBackgroundColor=none;fillColor=#FAE5C7;strokeColor=#0F8B8D;fontColor=#143642;" vertex="1" parent="1">
          <mxGeometry x="710" y="1280" width="40" height="40" as="geometry" />
        </mxCell>
        <mxCell id="_jVC7aK5IFEm5k1FdRS1-80" value="6" style="ellipse;whiteSpace=wrap;html=1;fontSize=24;labelBackgroundColor=none;fillColor=#FAE5C7;strokeColor=#0F8B8D;fontColor=#143642;" vertex="1" parent="1">
          <mxGeometry x="765" y="1025" width="40" height="40" as="geometry" />
        </mxCell>
        <mxCell id="_jVC7aK5IFEm5k1FdRS1-81" value="4" style="ellipse;whiteSpace=wrap;html=1;fontSize=24;labelBackgroundColor=none;fillColor=#FAE5C7;strokeColor=#0F8B8D;fontColor=#143642;" vertex="1" parent="1">
          <mxGeometry x="765" y="285" width="40" height="40" as="geometry" />
        </mxCell>
        <mxCell id="_jVC7aK5IFEm5k1FdRS1-82" value="5" style="ellipse;whiteSpace=wrap;html=1;fontSize=24;labelBackgroundColor=none;fillColor=#FAE5C7;strokeColor=#0F8B8D;fontColor=#143642;" vertex="1" parent="1">
          <mxGeometry x="765" y="676" width="40" height="40" as="geometry" />
        </mxCell>
        <mxCell id="_jVC7aK5IFEm5k1FdRS1-83" value="7" style="ellipse;whiteSpace=wrap;html=1;fontSize=24;labelBackgroundColor=none;fillColor=#FAE5C7;strokeColor=#0F8B8D;fontColor=#143642;" vertex="1" parent="1">
          <mxGeometry x="760" y="1395" width="40" height="40" as="geometry" />
        </mxCell>
        <mxCell id="_jVC7aK5IFEm5k1FdRS1-122" value="0" style="ellipse;whiteSpace=wrap;html=1;fontSize=24;labelBackgroundColor=none;fillColor=#FAE5C7;strokeColor=#0F8B8D;fontColor=#143642;" vertex="1" parent="1">
          <mxGeometry x="975" y="156" width="40" height="40" as="geometry" />
        </mxCell>
        <mxCell id="_jVC7aK5IFEm5k1FdRS1-123" value="1" style="ellipse;whiteSpace=wrap;html=1;fontSize=24;labelBackgroundColor=none;fillColor=#FAE5C7;strokeColor=#0F8B8D;fontColor=#143642;" vertex="1" parent="1">
          <mxGeometry x="975" y="547" width="40" height="40" as="geometry" />
        </mxCell>
        <mxCell id="_jVC7aK5IFEm5k1FdRS1-124" value="2" style="ellipse;whiteSpace=wrap;html=1;fontSize=24;labelBackgroundColor=none;fillColor=#FAE5C7;strokeColor=#0F8B8D;fontColor=#143642;" vertex="1" parent="1">
          <mxGeometry x="975" y="906" width="40" height="40" as="geometry" />
        </mxCell>
        <mxCell id="_jVC7aK5IFEm5k1FdRS1-125" value="3" style="ellipse;whiteSpace=wrap;html=1;fontSize=24;labelBackgroundColor=none;fillColor=#FAE5C7;strokeColor=#0F8B8D;fontColor=#143642;" vertex="1" parent="1">
          <mxGeometry x="970" y="1276" width="40" height="40" as="geometry" />
        </mxCell>
        <mxCell id="_jVC7aK5IFEm5k1FdRS1-126" value="6" style="ellipse;whiteSpace=wrap;html=1;fontSize=24;labelBackgroundColor=none;fillColor=#FAE5C7;strokeColor=#0F8B8D;fontColor=#143642;" vertex="1" parent="1">
          <mxGeometry x="1025" y="1021" width="40" height="40" as="geometry" />
        </mxCell>
        <mxCell id="_jVC7aK5IFEm5k1FdRS1-127" value="4" style="ellipse;whiteSpace=wrap;html=1;fontSize=24;labelBackgroundColor=none;fillColor=#FAE5C7;strokeColor=#0F8B8D;fontColor=#143642;" vertex="1" parent="1">
          <mxGeometry x="1025" y="281" width="40" height="40" as="geometry" />
        </mxCell>
        <mxCell id="_jVC7aK5IFEm5k1FdRS1-128" value="5" style="ellipse;whiteSpace=wrap;html=1;fontSize=24;labelBackgroundColor=none;fillColor=#FAE5C7;strokeColor=#0F8B8D;fontColor=#143642;" vertex="1" parent="1">
          <mxGeometry x="1025" y="672" width="40" height="40" as="geometry" />
        </mxCell>
        <mxCell id="_jVC7aK5IFEm5k1FdRS1-129" value="7" style="ellipse;whiteSpace=wrap;html=1;fontSize=24;labelBackgroundColor=none;fillColor=#FAE5C7;strokeColor=#0F8B8D;fontColor=#143642;" vertex="1" parent="1">
          <mxGeometry x="1020" y="1391" width="40" height="40" as="geometry" />
        </mxCell>
        <mxCell id="_jVC7aK5IFEm5k1FdRS1-130" value="0" style="ellipse;whiteSpace=wrap;html=1;fontSize=24;labelBackgroundColor=none;fillColor=#FAE5C7;strokeColor=#0F8B8D;fontColor=#143642;" vertex="1" parent="1">
          <mxGeometry x="1205" y="157" width="40" height="40" as="geometry" />
        </mxCell>
        <mxCell id="_jVC7aK5IFEm5k1FdRS1-131" value="1" style="ellipse;whiteSpace=wrap;html=1;fontSize=24;labelBackgroundColor=none;fillColor=#FAE5C7;strokeColor=#0F8B8D;fontColor=#143642;" vertex="1" parent="1">
          <mxGeometry x="1205" y="548" width="40" height="40" as="geometry" />
        </mxCell>
        <mxCell id="_jVC7aK5IFEm5k1FdRS1-132" value="2" style="ellipse;whiteSpace=wrap;html=1;fontSize=24;labelBackgroundColor=none;fillColor=#FAE5C7;strokeColor=#0F8B8D;fontColor=#143642;" vertex="1" parent="1">
          <mxGeometry x="1205" y="907" width="40" height="40" as="geometry" />
        </mxCell>
        <mxCell id="_jVC7aK5IFEm5k1FdRS1-133" value="3" style="ellipse;whiteSpace=wrap;html=1;fontSize=24;labelBackgroundColor=none;fillColor=#FAE5C7;strokeColor=#0F8B8D;fontColor=#143642;" vertex="1" parent="1">
          <mxGeometry x="1200" y="1277" width="40" height="40" as="geometry" />
        </mxCell>
        <mxCell id="_jVC7aK5IFEm5k1FdRS1-150" style="edgeStyle=orthogonalEdgeStyle;curved=1;rounded=0;orthogonalLoop=1;jettySize=auto;html=1;exitX=0;exitY=0.5;exitDx=0;exitDy=0;entryX=1;entryY=0.5;entryDx=0;entryDy=0;strokeColor=#0006A8;fontColor=#143642;fillColor=#FAE5C7;strokeWidth=2;" edge="1" parent="1" source="_jVC7aK5IFEm5k1FdRS1-134" target="_jVC7aK5IFEm5k1FdRS1-126">
          <mxGeometry relative="1" as="geometry" />
        </mxCell>
        <mxCell id="_jVC7aK5IFEm5k1FdRS1-134" value="6" style="ellipse;whiteSpace=wrap;html=1;fontSize=24;labelBackgroundColor=none;fillColor=#FAE5C7;strokeColor=#0F8B8D;fontColor=#143642;" vertex="1" parent="1">
          <mxGeometry x="1255" y="1022" width="40" height="40" as="geometry" />
        </mxCell>
        <mxCell id="_jVC7aK5IFEm5k1FdRS1-135" value="4" style="ellipse;whiteSpace=wrap;html=1;fontSize=24;labelBackgroundColor=none;fillColor=#FAE5C7;strokeColor=#0F8B8D;fontColor=#143642;" vertex="1" parent="1">
          <mxGeometry x="1255" y="282" width="40" height="40" as="geometry" />
        </mxCell>
        <mxCell id="_jVC7aK5IFEm5k1FdRS1-136" value="5" style="ellipse;whiteSpace=wrap;html=1;fontSize=24;labelBackgroundColor=none;fillColor=#FAE5C7;strokeColor=#0F8B8D;fontColor=#143642;" vertex="1" parent="1">
          <mxGeometry x="1255" y="673" width="40" height="40" as="geometry" />
        </mxCell>
        <mxCell id="_jVC7aK5IFEm5k1FdRS1-137" value="7" style="ellipse;whiteSpace=wrap;html=1;fontSize=24;labelBackgroundColor=none;fillColor=#FAE5C7;strokeColor=#0F8B8D;fontColor=#143642;" vertex="1" parent="1">
          <mxGeometry x="1250" y="1392" width="40" height="40" as="geometry" />
        </mxCell>
        <mxCell id="_jVC7aK5IFEm5k1FdRS1-138" value="0" style="ellipse;whiteSpace=wrap;html=1;fontSize=24;labelBackgroundColor=none;fillColor=#FAE5C7;strokeColor=#0F8B8D;fontColor=#143642;" vertex="1" parent="1">
          <mxGeometry x="1465" y="157" width="40" height="40" as="geometry" />
        </mxCell>
        <mxCell id="_jVC7aK5IFEm5k1FdRS1-139" value="1" style="ellipse;whiteSpace=wrap;html=1;fontSize=24;labelBackgroundColor=none;fillColor=#FAE5C7;strokeColor=#0F8B8D;fontColor=#143642;" vertex="1" parent="1">
          <mxGeometry x="1465" y="548" width="40" height="40" as="geometry" />
        </mxCell>
        <mxCell id="_jVC7aK5IFEm5k1FdRS1-140" value="2" style="ellipse;whiteSpace=wrap;html=1;fontSize=24;labelBackgroundColor=none;fillColor=#FAE5C7;strokeColor=#0F8B8D;fontColor=#143642;" vertex="1" parent="1">
          <mxGeometry x="1465" y="907" width="40" height="40" as="geometry" />
        </mxCell>
        <mxCell id="_jVC7aK5IFEm5k1FdRS1-141" value="3" style="ellipse;whiteSpace=wrap;html=1;fontSize=24;labelBackgroundColor=none;fillColor=#FAE5C7;strokeColor=#0F8B8D;fontColor=#143642;" vertex="1" parent="1">
          <mxGeometry x="1460" y="1277" width="40" height="40" as="geometry" />
        </mxCell>
        <mxCell id="_jVC7aK5IFEm5k1FdRS1-142" value="6" style="ellipse;whiteSpace=wrap;html=1;fontSize=24;labelBackgroundColor=none;fillColor=#FAE5C7;strokeColor=#0F8B8D;fontColor=#143642;" vertex="1" parent="1">
          <mxGeometry x="1515" y="1022" width="40" height="40" as="geometry" />
        </mxCell>
        <mxCell id="_jVC7aK5IFEm5k1FdRS1-143" value="4" style="ellipse;whiteSpace=wrap;html=1;fontSize=24;labelBackgroundColor=none;fillColor=#FAE5C7;strokeColor=#0F8B8D;fontColor=#143642;" vertex="1" parent="1">
          <mxGeometry x="1515" y="282" width="40" height="40" as="geometry" />
        </mxCell>
        <mxCell id="_jVC7aK5IFEm5k1FdRS1-144" value="5" style="ellipse;whiteSpace=wrap;html=1;fontSize=24;labelBackgroundColor=none;fillColor=#FAE5C7;strokeColor=#0F8B8D;fontColor=#143642;" vertex="1" parent="1">
          <mxGeometry x="1515" y="673" width="40" height="40" as="geometry" />
        </mxCell>
        <mxCell id="_jVC7aK5IFEm5k1FdRS1-145" value="7" style="ellipse;whiteSpace=wrap;html=1;fontSize=24;labelBackgroundColor=none;fillColor=#FAE5C7;strokeColor=#0F8B8D;fontColor=#143642;" vertex="1" parent="1">
          <mxGeometry x="1510" y="1392" width="40" height="40" as="geometry" />
        </mxCell>
        <mxCell id="_jVC7aK5IFEm5k1FdRS1-147" style="edgeStyle=orthogonalEdgeStyle;curved=1;rounded=0;orthogonalLoop=1;jettySize=auto;html=1;entryX=1;entryY=0.5;entryDx=0;entryDy=0;strokeColor=#0006A8;fontColor=#090042;fillColor=#FAE5C7;strokeWidth=2;" edge="1" parent="1" source="_jVC7aK5IFEm5k1FdRS1-126" target="_jVC7aK5IFEm5k1FdRS1-80">
          <mxGeometry relative="1" as="geometry">
            <mxPoint x="1020" y="1050" as="sourcePoint" />
            <mxPoint x="453" y="140" as="targetPoint" />
            <Array as="points">
              <mxPoint x="920" y="1040" />
              <mxPoint x="920" y="1045" />
            </Array>
          </mxGeometry>
        </mxCell>
        <mxCell id="_jVC7aK5IFEm5k1FdRS1-152" style="edgeStyle=orthogonalEdgeStyle;curved=1;rounded=0;orthogonalLoop=1;jettySize=auto;html=1;exitX=0;exitY=0.5;exitDx=0;exitDy=0;strokeColor=#0006A8;fontColor=#143642;fillColor=#FAE5C7;strokeWidth=2;entryX=1;entryY=0.5;entryDx=0;entryDy=0;" edge="1" parent="1" source="_jVC7aK5IFEm5k1FdRS1-142" target="_jVC7aK5IFEm5k1FdRS1-134">
          <mxGeometry relative="1" as="geometry">
            <mxPoint x="1265" y="1052" as="sourcePoint" />
            <mxPoint x="1310" y="1047" as="targetPoint" />
          </mxGeometry>
        </mxCell>
        <mxCell id="_jVC7aK5IFEm5k1FdRS1-154" style="edgeStyle=orthogonalEdgeStyle;curved=1;rounded=0;orthogonalLoop=1;jettySize=auto;html=1;exitX=0;exitY=0.5;exitDx=0;exitDy=0;strokeColor=#0006A8;fontColor=#143642;fillColor=#FAE5C7;strokeWidth=2;entryX=1;entryY=0.5;entryDx=0;entryDy=0;" edge="1" parent="1" source="_jVC7aK5IFEm5k1FdRS1-142" target="_jVC7aK5IFEm5k1FdRS1-135">
          <mxGeometry relative="1" as="geometry">
            <mxPoint x="1265" y="1052" as="sourcePoint" />
            <mxPoint x="1045" y="295" as="targetPoint" />
            <Array as="points">
              <mxPoint x="1390" y="1042" />
              <mxPoint x="1390" y="302" />
            </Array>
          </mxGeometry>
        </mxCell>
        <mxCell id="_jVC7aK5IFEm5k1FdRS1-156" style="edgeStyle=orthogonalEdgeStyle;curved=1;rounded=0;orthogonalLoop=1;jettySize=auto;html=1;exitX=0;exitY=0.5;exitDx=0;exitDy=0;strokeColor=#0006A8;fontColor=#143642;fillColor=#FAE5C7;strokeWidth=2;entryX=1;entryY=0.5;entryDx=0;entryDy=0;" edge="1" parent="1" source="_jVC7aK5IFEm5k1FdRS1-135" target="_jVC7aK5IFEm5k1FdRS1-124">
          <mxGeometry relative="1" as="geometry">
            <mxPoint x="1525" y="1052" as="sourcePoint" />
            <mxPoint x="1305" y="312" as="targetPoint" />
          </mxGeometry>
        </mxCell>
        <mxCell id="_jVC7aK5IFEm5k1FdRS1-157" style="edgeStyle=orthogonalEdgeStyle;curved=1;rounded=0;orthogonalLoop=1;jettySize=auto;html=1;exitX=0;exitY=0.5;exitDx=0;exitDy=0;strokeColor=#0006A8;fontColor=#143642;fillColor=#FAE5C7;strokeWidth=2;entryX=1;entryY=0.5;entryDx=0;entryDy=0;" edge="1" parent="1" source="_jVC7aK5IFEm5k1FdRS1-124" target="_jVC7aK5IFEm5k1FdRS1-29">
          <mxGeometry relative="1" as="geometry">
            <mxPoint x="1265" y="327" as="sourcePoint" />
            <mxPoint x="1025" y="951" as="targetPoint" />
            <Array as="points">
              <mxPoint x="650" y="941" />
              <mxPoint x="650" y="200" />
            </Array>
          </mxGeometry>
        </mxCell>
        <mxCell id="_jVC7aK5IFEm5k1FdRS1-159" style="edgeStyle=orthogonalEdgeStyle;curved=1;rounded=0;orthogonalLoop=1;jettySize=auto;html=1;strokeColor=#0006A8;fontColor=#143642;fillColor=#FAE5C7;strokeWidth=2;entryX=1;entryY=0.5;entryDx=0;entryDy=0;" edge="1" parent="1" source="_jVC7aK5IFEm5k1FdRS1-124" target="_jVC7aK5IFEm5k1FdRS1-62">
          <mxGeometry relative="1" as="geometry">
            <mxPoint x="985" y="951" as="sourcePoint" />
            <mxPoint x="453" y="210" as="targetPoint" />
            <Array as="points">
              <mxPoint x="660" y="951" />
              <mxPoint x="660" y="230" />
              <mxPoint x="443" y="230" />
            </Array>
          </mxGeometry>
        </mxCell>
        <mxCell id="_jVC7aK5IFEm5k1FdRS1-160" style="edgeStyle=orthogonalEdgeStyle;curved=1;rounded=0;orthogonalLoop=1;jettySize=auto;html=1;exitX=0;exitY=0.5;exitDx=0;exitDy=0;strokeColor=#0006A8;fontColor=#143642;fillColor=#FAE5C7;strokeWidth=2;entryX=1;entryY=0.5;entryDx=0;entryDy=0;" edge="1" parent="1" source="_jVC7aK5IFEm5k1FdRS1-138" target="_jVC7aK5IFEm5k1FdRS1-136">
          <mxGeometry relative="1" as="geometry">
            <mxPoint x="1525" y="1052" as="sourcePoint" />
            <mxPoint x="1305" y="312" as="targetPoint" />
          </mxGeometry>
        </mxCell>
        <mxCell id="_jVC7aK5IFEm5k1FdRS1-161" style="edgeStyle=orthogonalEdgeStyle;curved=1;rounded=0;orthogonalLoop=1;jettySize=auto;html=1;exitX=0;exitY=0.5;exitDx=0;exitDy=0;strokeColor=#0006A8;fontColor=#143642;fillColor=#FAE5C7;strokeWidth=2;" edge="1" parent="1" source="_jVC7aK5IFEm5k1FdRS1-136" target="_jVC7aK5IFEm5k1FdRS1-122">
          <mxGeometry relative="1" as="geometry">
            <mxPoint x="1475" y="187" as="sourcePoint" />
            <mxPoint x="995" y="176" as="targetPoint" />
            <Array as="points">
              <mxPoint x="1150" y="693" />
              <mxPoint x="1150" y="176" />
            </Array>
          </mxGeometry>
        </mxCell>
        <mxCell id="_jVC7aK5IFEm5k1FdRS1-162" style="edgeStyle=orthogonalEdgeStyle;curved=1;rounded=0;orthogonalLoop=1;jettySize=auto;html=1;exitX=0;exitY=0.5;exitDx=0;exitDy=0;strokeColor=#0006A8;fontColor=#143642;fillColor=#FAE5C7;strokeWidth=2;entryX=1;entryY=0.5;entryDx=0;entryDy=0;" edge="1" parent="1" source="_jVC7aK5IFEm5k1FdRS1-122" target="_jVC7aK5IFEm5k1FdRS1-33">
          <mxGeometry relative="1" as="geometry">
            <mxPoint x="1265" y="718" as="sourcePoint" />
            <mxPoint x="1025" y="201" as="targetPoint" />
            <Array as="points">
              <mxPoint x="880" y="191" />
              <mxPoint x="880" y="240" />
              <mxPoint x="443" y="240" />
            </Array>
          </mxGeometry>
        </mxCell>
        <mxCell id="_jVC7aK5IFEm5k1FdRS1-164" style="edgeStyle=orthogonalEdgeStyle;curved=1;rounded=0;orthogonalLoop=1;jettySize=auto;html=1;strokeColor=#0006A8;fontColor=#143642;fillColor=#FAE5C7;strokeWidth=2;" edge="1" parent="1" source="_jVC7aK5IFEm5k1FdRS1-139" target="_jVC7aK5IFEm5k1FdRS1-136">
          <mxGeometry relative="1" as="geometry">
            <mxPoint x="1525" y="1052" as="sourcePoint" />
            <mxPoint x="1305" y="312" as="targetPoint" />
            <Array as="points">
              <mxPoint x="1350" y="568" />
              <mxPoint x="1350" y="693" />
            </Array>
          </mxGeometry>
        </mxCell>
        <mxCell id="_jVC7aK5IFEm5k1FdRS1-165" style="edgeStyle=orthogonalEdgeStyle;curved=1;rounded=0;orthogonalLoop=1;jettySize=auto;html=1;strokeColor=#0006A8;fontColor=#143642;fillColor=#FAE5C7;strokeWidth=2;entryX=1;entryY=0.5;entryDx=0;entryDy=0;" edge="1" parent="1" source="_jVC7aK5IFEm5k1FdRS1-135" target="_jVC7aK5IFEm5k1FdRS1-37">
          <mxGeometry relative="1" as="geometry">
            <mxPoint x="1265" y="327" as="sourcePoint" />
            <mxPoint x="1025" y="951" as="targetPoint" />
            <Array as="points">
              <mxPoint x="1275" y="380" />
              <mxPoint x="810" y="380" />
              <mxPoint x="810" y="520" />
              <mxPoint x="443" y="520" />
            </Array>
          </mxGeometry>
        </mxCell>
        <mxCell id="_jVC7aK5IFEm5k1FdRS1-166" style="edgeStyle=orthogonalEdgeStyle;curved=1;rounded=0;orthogonalLoop=1;jettySize=auto;html=1;strokeColor=#0006A8;fontColor=#143642;fillColor=#FAE5C7;strokeWidth=2;" edge="1" parent="1" source="_jVC7aK5IFEm5k1FdRS1-142" target="_jVC7aK5IFEm5k1FdRS1-136">
          <mxGeometry relative="1" as="geometry">
            <mxPoint x="1475" y="187" as="sourcePoint" />
            <mxPoint x="1305" y="703" as="targetPoint" />
            <Array as="points">
              <mxPoint x="1380" y="1042" />
              <mxPoint x="1380" y="693" />
            </Array>
          </mxGeometry>
        </mxCell>
        <mxCell id="_jVC7aK5IFEm5k1FdRS1-167" style="edgeStyle=orthogonalEdgeStyle;curved=1;rounded=0;orthogonalLoop=1;jettySize=auto;html=1;strokeColor=#0006A8;fontColor=#143642;fillColor=#FAE5C7;strokeWidth=2;" edge="1" parent="1" source="_jVC7aK5IFEm5k1FdRS1-136" target="_jVC7aK5IFEm5k1FdRS1-39">
          <mxGeometry relative="1" as="geometry">
            <mxPoint x="1285" y="347" as="sourcePoint" />
            <mxPoint x="480" y="650" as="targetPoint" />
            <Array as="points">
              <mxPoint x="1200" y="708" />
              <mxPoint x="1200" y="840" />
              <mxPoint x="820" y="840" />
              <mxPoint x="820" y="760" />
              <mxPoint x="520" y="760" />
              <mxPoint x="520" y="650" />
            </Array>
          </mxGeometry>
        </mxCell>
        <mxCell id="_jVC7aK5IFEm5k1FdRS1-169" style="edgeStyle=orthogonalEdgeStyle;curved=1;rounded=0;orthogonalLoop=1;jettySize=auto;html=1;strokeColor=#0006A8;fontColor=#143642;fillColor=#FAE5C7;strokeWidth=2;" edge="1" parent="1" source="_jVC7aK5IFEm5k1FdRS1-144" target="_jVC7aK5IFEm5k1FdRS1-133">
          <mxGeometry relative="1" as="geometry">
            <mxPoint x="1525" y="1052" as="sourcePoint" />
            <mxPoint x="1305" y="703" as="targetPoint" />
            <Array as="points">
              <mxPoint x="1390" y="693" />
              <mxPoint x="1390" y="1052" />
              <mxPoint x="1370" y="1052" />
              <mxPoint x="1370" y="1185" />
              <mxPoint x="1220" y="1185" />
            </Array>
          </mxGeometry>
        </mxCell>
        <mxCell id="_jVC7aK5IFEm5k1FdRS1-171" style="edgeStyle=orthogonalEdgeStyle;curved=1;rounded=0;orthogonalLoop=1;jettySize=auto;html=1;strokeColor=#0006A8;fontColor=#143642;fillColor=#FAE5C7;strokeWidth=2;" edge="1" parent="1" source="_jVC7aK5IFEm5k1FdRS1-128" target="_jVC7aK5IFEm5k1FdRS1-79">
          <mxGeometry relative="1" as="geometry">
            <mxPoint x="1045" y="638" as="sourcePoint" />
            <mxPoint x="805" y="1262" as="targetPoint" />
            <Array as="points">
              <mxPoint x="880" y="707" />
              <mxPoint x="880" y="1300" />
            </Array>
          </mxGeometry>
        </mxCell>
        <mxCell id="_jVC7aK5IFEm5k1FdRS1-172" style="edgeStyle=orthogonalEdgeStyle;curved=1;rounded=0;orthogonalLoop=1;jettySize=auto;html=1;strokeColor=#0006A8;fontColor=#143642;fillColor=#FAE5C7;strokeWidth=2;" edge="1" parent="1" source="_jVC7aK5IFEm5k1FdRS1-133" target="_jVC7aK5IFEm5k1FdRS1-128">
          <mxGeometry relative="1" as="geometry">
            <mxPoint x="1285" y="755" as="sourcePoint" />
            <mxPoint x="1010" y="1348" as="targetPoint" />
            <Array as="points">
              <mxPoint x="1220" y="1245" />
              <mxPoint x="1140" y="1245" />
              <mxPoint x="1140" y="692" />
            </Array>
          </mxGeometry>
        </mxCell>
        <mxCell id="_jVC7aK5IFEm5k1FdRS1-173" style="edgeStyle=orthogonalEdgeStyle;curved=1;rounded=0;orthogonalLoop=1;jettySize=auto;html=1;strokeColor=#0006A8;fontColor=#143642;fillColor=#FAE5C7;strokeWidth=2;entryX=1;entryY=0.5;entryDx=0;entryDy=0;" edge="1" parent="1" source="_jVC7aK5IFEm5k1FdRS1-79" target="_jVC7aK5IFEm5k1FdRS1-41">
          <mxGeometry relative="1" as="geometry">
            <mxPoint x="750" y="780" as="sourcePoint" />
            <mxPoint x="475" y="1373" as="targetPoint" />
            <Array as="points">
              <mxPoint x="730" y="1220" />
              <mxPoint x="650" y="1220" />
              <mxPoint x="650" y="870" />
              <mxPoint x="530" y="870" />
              <mxPoint x="530" y="760" />
            </Array>
          </mxGeometry>
        </mxCell>
        <mxCell id="_jVC7aK5IFEm5k1FdRS1-177" style="edgeStyle=orthogonalEdgeStyle;curved=1;rounded=0;orthogonalLoop=1;jettySize=auto;html=1;strokeColor=#0006A8;fontColor=#143642;fillColor=#FAE5C7;strokeWidth=2;" edge="1" parent="1" source="_jVC7aK5IFEm5k1FdRS1-145" target="_jVC7aK5IFEm5k1FdRS1-136">
          <mxGeometry relative="1" as="geometry">
            <mxPoint x="1540" y="1402" as="sourcePoint" />
            <mxPoint x="1275" y="700" as="targetPoint" />
            <Array as="points">
              <mxPoint x="1530" y="1375" />
              <mxPoint x="1400" y="1375" />
              <mxPoint x="1400" y="710" />
            </Array>
          </mxGeometry>
        </mxCell>
        <mxCell id="_jVC7aK5IFEm5k1FdRS1-178" style="edgeStyle=orthogonalEdgeStyle;curved=1;rounded=0;orthogonalLoop=1;jettySize=auto;html=1;strokeColor=#0006A8;fontColor=#143642;fillColor=#FAE5C7;strokeWidth=2;" edge="1" parent="1" source="_jVC7aK5IFEm5k1FdRS1-136" target="_jVC7aK5IFEm5k1FdRS1-127">
          <mxGeometry relative="1" as="geometry">
            <mxPoint x="1265" y="703" as="sourcePoint" />
            <mxPoint x="1025" y="186" as="targetPoint" />
            <Array as="points">
              <mxPoint x="1160" y="703" />
              <mxPoint x="1160" y="301" />
            </Array>
          </mxGeometry>
        </mxCell>
        <mxCell id="_jVC7aK5IFEm5k1FdRS1-179" style="edgeStyle=orthogonalEdgeStyle;curved=1;rounded=0;orthogonalLoop=1;jettySize=auto;html=1;strokeColor=#0006A8;fontColor=#143642;fillColor=#FAE5C7;strokeWidth=2;entryX=1;entryY=0.5;entryDx=0;entryDy=0;" edge="1" parent="1" source="_jVC7aK5IFEm5k1FdRS1-127" target="_jVC7aK5IFEm5k1FdRS1-43">
          <mxGeometry relative="1" as="geometry">
            <mxPoint x="1268" y="713" as="sourcePoint" />
            <mxPoint x="1075" y="311" as="targetPoint" />
            <Array as="points">
              <mxPoint x="810" y="315" />
              <mxPoint x="810" y="510" />
              <mxPoint x="510" y="510" />
              <mxPoint x="510" y="850" />
            </Array>
          </mxGeometry>
        </mxCell>
        <mxCell id="_jVC7aK5IFEm5k1FdRS1-180" style="edgeStyle=orthogonalEdgeStyle;curved=1;rounded=0;orthogonalLoop=1;jettySize=auto;html=1;strokeColor=#0006A8;fontColor=#143642;fillColor=#FAE5C7;strokeWidth=2;" edge="1" parent="1" source="_jVC7aK5IFEm5k1FdRS1-127" target="_jVC7aK5IFEm5k1FdRS1-80">
          <mxGeometry relative="1" as="geometry">
            <mxPoint x="1041" y="325" as="sourcePoint" />
            <mxPoint x="760" y="830" as="targetPoint" />
            <Array as="points">
              <mxPoint x="1050" y="325" />
              <mxPoint x="860" y="325" />
              <mxPoint x="860" y="1045" />
            </Array>
          </mxGeometry>
        </mxCell>
        <mxCell id="_jVC7aK5IFEm5k1FdRS1-181" style="edgeStyle=orthogonalEdgeStyle;curved=1;rounded=0;orthogonalLoop=1;jettySize=auto;html=1;strokeColor=#0006A8;fontColor=#143642;fillColor=#FAE5C7;strokeWidth=2;entryX=1;entryY=0.5;entryDx=0;entryDy=0;" edge="1" parent="1">
          <mxGeometry relative="1" as="geometry">
            <mxPoint x="1050" y="310" as="sourcePoint" />
            <mxPoint x="453" y="860" as="targetPoint" />
            <Array as="points">
              <mxPoint x="820" y="325" />
              <mxPoint x="820" y="520" />
              <mxPoint x="520" y="520" />
              <mxPoint x="520" y="860" />
            </Array>
          </mxGeometry>
        </mxCell>
      </root>
    </mxGraphModel>
  </diagram>
</mxfile>
